<svg xmlns="http://www.w3.org/2000/svg" xmlns:xlink="http://www.w3.org/1999/xlink" width="500" zoomAndPan="magnify" viewBox="0 0 375 374.999991" height="500" preserveAspectRatio="xMidYMid meet" version="1.0"><defs><g/><clipPath id="30c90698a6"><path d="M 3 0.621094 L 98.050781 0.621094 L 98.050781 132.140625 L 3 132.140625 Z M 3 0.621094 " clip-rule="nonzero"/></clipPath><clipPath id="f2d272b569"><rect x="0" width="304" y="0" height="134"/></clipPath></defs><g transform="matrix(1, 0, 0, 1, 37, 121)"><g clip-path="url(#f2d272b569)"><g clip-path="url(#30c90698a6)"><path fill="#201e1e" d="M 71.425781 34.667969 L 71.425781 69.570312 C 71.425781 72.898438 71.488281 76.261719 71.746094 79.585938 C 71.910156 81.636719 72.136719 83.886719 72.667969 85.882812 L 72.675781 85.910156 L 72.679688 85.941406 C 73.320312 88.75 74.546875 91.253906 76.507812 93.375 L 79.3125 96.402344 L 75.175781 96.402344 C 72.523438 96.402344 69.027344 96.625 66.621094 97.855469 L 66.597656 97.867188 L 66.578125 97.875 C 64.226562 99.003906 61.640625 101.691406 59.917969 103.597656 L 54.210938 109.910156 L 56.84375 101.832031 C 56.988281 101.390625 57.125 100.949219 57.253906 100.503906 C 57.484375 99.722656 57.695312 98.933594 57.894531 98.140625 L 57.917969 98.050781 L 57.949219 97.964844 C 58.660156 96 59.191406 93.972656 59.570312 91.914062 C 60.042969 89.316406 60.242188 86.550781 60.382812 83.917969 C 60.609375 79.800781 60.664062 75.664062 60.664062 71.542969 L 60.664062 40.707031 C 64.023438 38.414062 67.660156 36.410156 71.425781 34.667969 Z M 31.320312 109.710938 C 19.59375 91.417969 0.5 15.984375 98.050781 23.125 C 98.050781 23.125 25.828125 34.148438 42.097656 84.691406 C 41.734375 88.335938 41.117188 92.066406 40.003906 95.527344 C 38.25 100.984375 35.183594 105.691406 31.320312 109.710938 Z M 57.867188 0.632812 L 57.867188 22.625 C 54.152344 23.601562 50.542969 24.835938 47.109375 26.378906 L 47.109375 23.871094 C 47.109375 20.429688 46.820312 13.003906 44.953125 9.992188 C 43.308594 7.34375 39.863281 6.246094 36.960938 5.71875 L 35.476562 5.449219 L 35.476562 0.632812 Z M 56.335938 91.855469 C 55.890625 94.507812 55.320312 97.144531 54.570312 99.730469 C 47.117188 125.316406 22.597656 131.355469 3 132.128906 C 18.253906 126.203125 38.039062 116.761719 44.410156 96.9375 C 45.792969 92.640625 46.484375 88.011719 46.847656 83.523438 C 47.054688 79.539062 47.109375 75.535156 47.109375 71.542969 L 47.109375 54.640625 C 47.96875 53.144531 48.972656 51.675781 50.121094 50.238281 C 52.375 47.425781 55.015625 44.9375 57.867188 42.738281 L 57.867188 74.316406 C 57.867188 80.132812 57.558594 86.152344 56.335938 91.855469 Z M 83.054688 0.632812 L 83.054688 5.449219 L 81.570312 5.71875 C 78.664062 6.25 75.226562 7.34375 73.578125 9.992188 C 72.3125 12.035156 71.820312 17.367188 71.601562 19.71875 L 71.558594 20.167969 C 67.882812 20.5625 64.230469 21.144531 60.664062 21.949219 L 60.664062 0.632812 L 62.476562 0.632812 C 68.730469 0.632812 74.988281 0.632812 81.242188 0.632812 Z M 83.054688 0.632812 " fill-opacity="1" fill-rule="nonzero"/></g><g fill="#000000" fill-opacity="1"><g transform="translate(108.671551, 55.017329)"><g><path d="M -0.9375 7.640625 L -0.9375 6.828125 C 0.144531 6.722656 1.066406 6.40625 1.828125 5.875 C 2.585938 5.34375 3.171875 4.441406 3.578125 3.171875 C 3.984375 1.898438 4.1875 0.113281 4.1875 -2.1875 L 4.1875 -24.46875 C 4.1875 -25.46875 4.109375 -26.203125 3.953125 -26.671875 C 3.804688 -27.148438 3.515625 -27.476562 3.078125 -27.65625 C 2.648438 -27.832031 2.003906 -27.929688 1.140625 -27.953125 L 1.140625 -28.78125 C 1.816406 -28.75 2.703125 -28.71875 3.796875 -28.6875 C 4.898438 -28.664062 6.0625 -28.65625 7.28125 -28.65625 C 8.5 -28.65625 9.679688 -28.664062 10.828125 -28.6875 C 11.984375 -28.71875 12.941406 -28.75 13.703125 -28.78125 L 13.703125 -27.953125 C 12.859375 -27.929688 12.210938 -27.832031 11.765625 -27.65625 C 11.316406 -27.476562 11.015625 -27.148438 10.859375 -26.671875 C 10.710938 -26.203125 10.640625 -25.46875 10.640625 -24.46875 L 10.640625 -9.59375 C 10.640625 -8.476562 10.640625 -7.273438 10.640625 -5.984375 C 10.640625 -4.703125 10.59375 -3.453125 10.5 -2.234375 C 10.40625 -1.015625 10.222656 0.0664062 9.953125 1.015625 C 9.410156 2.878906 8.238281 4.445312 6.4375 5.71875 C 4.632812 7 2.175781 7.640625 -0.9375 7.640625 Z M -0.9375 7.640625 "/></g></g></g><g fill="#000000" fill-opacity="1"><g transform="translate(122.650768, 55.017329)"><g><path d="M 6.578125 0.28125 C 5.359375 0.28125 4.34375 0.0507812 3.53125 -0.40625 C 2.71875 -0.863281 2.117188 -1.476562 1.734375 -2.25 C 1.359375 -3.019531 1.171875 -3.867188 1.171875 -4.796875 C 1.171875 -5.960938 1.4375 -6.910156 1.96875 -7.640625 C 2.5 -8.367188 3.179688 -8.960938 4.015625 -9.421875 C 4.859375 -9.890625 5.75 -10.269531 6.6875 -10.5625 C 7.625 -10.863281 8.515625 -11.15625 9.359375 -11.4375 C 10.210938 -11.71875 10.90625 -12.054688 11.4375 -12.453125 C 11.96875 -12.847656 12.234375 -13.359375 12.234375 -13.984375 L 12.234375 -17.15625 C 12.234375 -17.851562 12.117188 -18.476562 11.890625 -19.03125 C 11.660156 -19.59375 11.304688 -20.019531 10.828125 -20.3125 C 10.359375 -20.613281 9.742188 -20.765625 8.984375 -20.765625 C 8.441406 -20.765625 7.898438 -20.6875 7.359375 -20.53125 C 6.816406 -20.382812 6.367188 -20.140625 6.015625 -19.796875 C 6.773438 -19.523438 7.363281 -19.109375 7.78125 -18.546875 C 8.195312 -17.992188 8.40625 -17.363281 8.40625 -16.65625 C 8.40625 -15.738281 8.085938 -15.007812 7.453125 -14.46875 C 6.816406 -13.925781 6.066406 -13.65625 5.203125 -13.65625 C 4.222656 -13.65625 3.484375 -13.957031 2.984375 -14.5625 C 2.484375 -15.175781 2.234375 -15.914062 2.234375 -16.78125 C 2.234375 -17.570312 2.425781 -18.222656 2.8125 -18.734375 C 3.207031 -19.242188 3.757812 -19.734375 4.46875 -20.203125 C 5.226562 -20.628906 6.140625 -20.960938 7.203125 -21.203125 C 8.273438 -21.453125 9.4375 -21.578125 10.6875 -21.578125 C 11.9375 -21.578125 13.0625 -21.445312 14.0625 -21.1875 C 15.0625 -20.9375 15.898438 -20.472656 16.578125 -19.796875 C 17.203125 -19.171875 17.609375 -18.40625 17.796875 -17.5 C 17.984375 -16.59375 18.078125 -15.445312 18.078125 -14.0625 L 18.078125 -3 C 18.078125 -2.320312 18.144531 -1.851562 18.28125 -1.59375 C 18.414062 -1.34375 18.648438 -1.21875 18.984375 -1.21875 C 19.222656 -1.21875 19.457031 -1.285156 19.6875 -1.421875 C 19.914062 -1.554688 20.164062 -1.71875 20.4375 -1.90625 L 20.84375 -1.21875 C 20.28125 -0.726562 19.625 -0.351562 18.875 -0.09375 C 18.132812 0.15625 17.300781 0.28125 16.375 0.28125 C 15.375 0.28125 14.578125 0.140625 13.984375 -0.140625 C 13.390625 -0.421875 12.960938 -0.804688 12.703125 -1.296875 C 12.441406 -1.785156 12.3125 -2.351562 12.3125 -3 C 11.664062 -1.976562 10.878906 -1.175781 9.953125 -0.59375 C 9.035156 -0.0078125 7.910156 0.28125 6.578125 0.28125 Z M 9.46875 -2.3125 C 10.007812 -2.3125 10.503906 -2.441406 10.953125 -2.703125 C 11.398438 -2.960938 11.828125 -3.390625 12.234375 -3.984375 L 12.234375 -12.3125 C 11.984375 -11.90625 11.640625 -11.539062 11.203125 -11.21875 C 10.773438 -10.894531 10.316406 -10.5625 9.828125 -10.21875 C 9.347656 -9.882812 8.882812 -9.515625 8.4375 -9.109375 C 7.988281 -8.703125 7.628906 -8.195312 7.359375 -7.59375 C 7.085938 -7 6.953125 -6.285156 6.953125 -5.453125 C 6.953125 -4.390625 7.179688 -3.597656 7.640625 -3.078125 C 8.097656 -2.566406 8.707031 -2.3125 9.46875 -2.3125 Z M 9.46875 -2.3125 "/></g></g></g><g fill="#000000" fill-opacity="1"><g transform="translate(143.700963, 55.017329)"><g><path d="M 11.546875 -21.578125 C 12.597656 -21.578125 13.5625 -21.460938 14.4375 -21.234375 C 15.320312 -21.003906 16.050781 -20.710938 16.625 -20.359375 C 17.320312 -19.921875 17.867188 -19.382812 18.265625 -18.75 C 18.660156 -18.113281 18.859375 -17.378906 18.859375 -16.546875 C 18.859375 -15.597656 18.554688 -14.816406 17.953125 -14.203125 C 17.359375 -13.597656 16.585938 -13.296875 15.640625 -13.296875 C 14.691406 -13.296875 13.929688 -13.566406 13.359375 -14.109375 C 12.796875 -14.648438 12.515625 -15.378906 12.515625 -16.296875 C 12.515625 -17.160156 12.785156 -17.882812 13.328125 -18.46875 C 13.867188 -19.050781 14.492188 -19.4375 15.203125 -19.625 C 14.984375 -19.894531 14.65625 -20.125 14.21875 -20.3125 C 13.789062 -20.507812 13.304688 -20.609375 12.765625 -20.609375 C 11.921875 -20.609375 11.179688 -20.363281 10.546875 -19.875 C 9.910156 -19.382812 9.375 -18.707031 8.9375 -17.84375 C 8.507812 -16.976562 8.175781 -15.960938 7.9375 -14.796875 C 7.707031 -13.628906 7.59375 -12.351562 7.59375 -10.96875 C 7.59375 -8.882812 7.859375 -7.242188 8.390625 -6.046875 C 8.921875 -4.859375 9.597656 -4.019531 10.421875 -3.53125 C 11.242188 -3.039062 12.101562 -2.796875 13 -2.796875 C 13.519531 -2.796875 14.082031 -2.878906 14.6875 -3.046875 C 15.300781 -3.210938 15.925781 -3.535156 16.5625 -4.015625 C 17.195312 -4.503906 17.785156 -5.195312 18.328125 -6.09375 L 19.015625 -5.859375 C 18.722656 -4.847656 18.238281 -3.84375 17.5625 -2.84375 C 16.882812 -1.84375 16.003906 -1.023438 14.921875 -0.390625 C 13.835938 0.242188 12.507812 0.5625 10.9375 0.5625 C 9.175781 0.5625 7.582031 0.175781 6.15625 -0.59375 C 4.726562 -1.363281 3.585938 -2.550781 2.734375 -4.15625 C 1.890625 -5.769531 1.46875 -7.851562 1.46875 -10.40625 C 1.46875 -12.84375 1.90625 -14.894531 2.78125 -16.5625 C 3.664062 -18.226562 4.863281 -19.476562 6.375 -20.3125 C 7.894531 -21.15625 9.617188 -21.578125 11.546875 -21.578125 Z M 11.546875 -21.578125 "/></g></g></g><g fill="#000000" fill-opacity="1"><g transform="translate(163.85714, 55.017329)"><g><path d="M 6.25 -31.5 C 7.394531 -31.5 8.296875 -31.21875 8.953125 -30.65625 C 9.617188 -30.101562 9.953125 -29.335938 9.953125 -28.359375 C 9.953125 -27.390625 9.617188 -26.625 8.953125 -26.0625 C 8.296875 -25.507812 7.394531 -25.234375 6.25 -25.234375 C 5.113281 -25.234375 4.210938 -25.507812 3.546875 -26.0625 C 2.890625 -26.625 2.5625 -27.390625 2.5625 -28.359375 C 2.5625 -29.335938 2.890625 -30.101562 3.546875 -30.65625 C 4.210938 -31.21875 5.113281 -31.5 6.25 -31.5 Z M 9.421875 -21.453125 L 9.421875 -3.78125 C 9.421875 -2.644531 9.617188 -1.875 10.015625 -1.46875 C 10.410156 -1.0625 11.082031 -0.859375 12.03125 -0.859375 L 12.03125 0 C 11.539062 -0.03125 10.78125 -0.0625 9.75 -0.09375 C 8.71875 -0.132812 7.675781 -0.15625 6.625 -0.15625 C 5.570312 -0.15625 4.5 -0.132812 3.40625 -0.09375 C 2.320312 -0.0625 1.507812 -0.03125 0.96875 0 L 0.96875 -0.859375 C 1.914062 -0.859375 2.585938 -1.0625 2.984375 -1.46875 C 3.378906 -1.875 3.578125 -2.644531 3.578125 -3.78125 L 3.578125 -16.578125 C 3.578125 -17.796875 3.394531 -18.695312 3.03125 -19.28125 C 2.664062 -19.863281 1.976562 -20.15625 0.96875 -20.15625 L 0.96875 -21.015625 C 1.84375 -20.929688 2.6875 -20.890625 3.5 -20.890625 C 4.632812 -20.890625 5.695312 -20.9375 6.6875 -21.03125 C 7.675781 -21.125 8.585938 -21.265625 9.421875 -21.453125 Z M 9.421875 -21.453125 "/></g></g></g><g fill="#000000" fill-opacity="1"><g transform="translate(176.210889, 55.017329)"><g><path d="M 16.140625 -29.34375 C 17.921875 -29.34375 19.382812 -29.078125 20.53125 -28.546875 C 21.6875 -28.015625 22.710938 -27.398438 23.609375 -26.703125 C 24.148438 -26.296875 24.5625 -26.25 24.84375 -26.5625 C 25.132812 -26.875 25.332031 -27.613281 25.4375 -28.78125 L 26.375 -28.78125 C 26.320312 -27.71875 26.28125 -26.429688 26.25 -24.921875 C 26.226562 -23.421875 26.21875 -21.425781 26.21875 -18.9375 L 25.28125 -18.9375 C 25.144531 -20.1875 24.96875 -21.25 24.75 -22.125 C 24.53125 -23.007812 24.226562 -23.789062 23.84375 -24.46875 C 23.46875 -25.144531 22.929688 -25.753906 22.234375 -26.296875 C 21.554688 -26.972656 20.769531 -27.472656 19.875 -27.796875 C 18.976562 -28.117188 18.039062 -28.28125 17.0625 -28.28125 C 15.601562 -28.28125 14.359375 -27.894531 13.328125 -27.125 C 12.296875 -26.351562 11.460938 -25.300781 10.828125 -23.96875 C 10.191406 -22.644531 9.722656 -21.148438 9.421875 -19.484375 C 9.128906 -17.816406 8.984375 -16.09375 8.984375 -14.3125 C 8.984375 -12.488281 9.140625 -10.742188 9.453125 -9.078125 C 9.765625 -7.410156 10.25 -5.925781 10.90625 -4.625 C 11.570312 -3.332031 12.429688 -2.304688 13.484375 -1.546875 C 14.546875 -0.785156 15.796875 -0.40625 17.234375 -0.40625 C 18.128906 -0.40625 19.03125 -0.570312 19.9375 -0.90625 C 20.84375 -1.25 21.617188 -1.742188 22.265625 -2.390625 C 23.328125 -3.203125 24.046875 -4.210938 24.421875 -5.421875 C 24.804688 -6.628906 25.09375 -8.234375 25.28125 -10.234375 L 26.21875 -10.234375 C 26.21875 -7.660156 26.226562 -5.582031 26.25 -4 C 26.28125 -2.414062 26.320312 -1.082031 26.375 0 L 25.4375 0 C 25.332031 -1.164062 25.148438 -1.894531 24.890625 -2.1875 C 24.628906 -2.488281 24.203125 -2.453125 23.609375 -2.078125 C 22.609375 -1.367188 21.546875 -0.75 20.421875 -0.21875 C 19.296875 0.300781 17.851562 0.5625 16.09375 0.5625 C 13.21875 0.5625 10.703125 -0.015625 8.546875 -1.171875 C 6.398438 -2.335938 4.726562 -4.019531 3.53125 -6.21875 C 2.34375 -8.414062 1.75 -11.054688 1.75 -14.140625 C 1.75 -17.171875 2.363281 -19.820312 3.59375 -22.09375 C 4.832031 -24.375 6.523438 -26.148438 8.671875 -27.421875 C 10.828125 -28.703125 13.316406 -29.34375 16.140625 -29.34375 Z M 16.140625 -29.34375 "/></g></g></g><g fill="#000000" fill-opacity="1"><g transform="translate(204.86029, 55.017329)"><g><path d="M 14.953125 -21.578125 C 15.816406 -21.578125 16.519531 -21.394531 17.0625 -21.03125 C 17.601562 -20.664062 18.003906 -20.195312 18.265625 -19.625 C 18.523438 -19.0625 18.65625 -18.46875 18.65625 -17.84375 C 18.65625 -16.84375 18.363281 -16.019531 17.78125 -15.375 C 17.195312 -14.738281 16.429688 -14.421875 15.484375 -14.421875 C 14.535156 -14.421875 13.796875 -14.65625 13.265625 -15.125 C 12.742188 -15.601562 12.484375 -16.238281 12.484375 -17.03125 C 12.484375 -17.789062 12.648438 -18.421875 12.984375 -18.921875 C 13.328125 -19.421875 13.753906 -19.847656 14.265625 -20.203125 C 13.890625 -20.304688 13.507812 -20.289062 13.125 -20.15625 C 12.613281 -20.070312 12.125 -19.859375 11.65625 -19.515625 C 11.195312 -19.179688 10.804688 -18.765625 10.484375 -18.265625 C 10.160156 -17.765625 9.898438 -17.222656 9.703125 -16.640625 C 9.515625 -16.054688 9.421875 -15.492188 9.421875 -14.953125 L 9.421875 -4.1875 C 9.421875 -2.882812 9.738281 -2.003906 10.375 -1.546875 C 11.019531 -1.085938 11.976562 -0.859375 13.25 -0.859375 L 13.25 0 C 12.625 -0.03125 11.710938 -0.0625 10.515625 -0.09375 C 9.328125 -0.132812 8.082031 -0.15625 6.78125 -0.15625 C 5.695312 -0.15625 4.597656 -0.132812 3.484375 -0.09375 C 2.378906 -0.0625 1.539062 -0.03125 0.96875 0 L 0.96875 -0.859375 C 1.914062 -0.859375 2.585938 -1.0625 2.984375 -1.46875 C 3.378906 -1.875 3.578125 -2.644531 3.578125 -3.78125 L 3.578125 -16.578125 C 3.578125 -17.796875 3.394531 -18.695312 3.03125 -19.28125 C 2.664062 -19.863281 1.976562 -20.15625 0.96875 -20.15625 L 0.96875 -21.015625 C 1.84375 -20.929688 2.6875 -20.890625 3.5 -20.890625 C 4.632812 -20.890625 5.695312 -20.9375 6.6875 -21.03125 C 7.675781 -21.125 8.585938 -21.265625 9.421875 -21.453125 L 9.421875 -17.671875 C 9.753906 -18.410156 10.191406 -19.078125 10.734375 -19.671875 C 11.273438 -20.265625 11.894531 -20.726562 12.59375 -21.0625 C 13.300781 -21.40625 14.085938 -21.578125 14.953125 -21.578125 Z M 14.953125 -21.578125 "/></g></g></g><g fill="#000000" fill-opacity="1"><g transform="translate(223.837969, 55.017329)"><g><path d="M 6.578125 0.28125 C 5.359375 0.28125 4.34375 0.0507812 3.53125 -0.40625 C 2.71875 -0.863281 2.117188 -1.476562 1.734375 -2.25 C 1.359375 -3.019531 1.171875 -3.867188 1.171875 -4.796875 C 1.171875 -5.960938 1.4375 -6.910156 1.96875 -7.640625 C 2.5 -8.367188 3.179688 -8.960938 4.015625 -9.421875 C 4.859375 -9.890625 5.75 -10.269531 6.6875 -10.5625 C 7.625 -10.863281 8.515625 -11.15625 9.359375 -11.4375 C 10.210938 -11.71875 10.90625 -12.054688 11.4375 -12.453125 C 11.96875 -12.847656 12.234375 -13.359375 12.234375 -13.984375 L 12.234375 -17.15625 C 12.234375 -17.851562 12.117188 -18.476562 11.890625 -19.03125 C 11.660156 -19.59375 11.304688 -20.019531 10.828125 -20.3125 C 10.359375 -20.613281 9.742188 -20.765625 8.984375 -20.765625 C 8.441406 -20.765625 7.898438 -20.6875 7.359375 -20.53125 C 6.816406 -20.382812 6.367188 -20.140625 6.015625 -19.796875 C 6.773438 -19.523438 7.363281 -19.109375 7.78125 -18.546875 C 8.195312 -17.992188 8.40625 -17.363281 8.40625 -16.65625 C 8.40625 -15.738281 8.085938 -15.007812 7.453125 -14.46875 C 6.816406 -13.925781 6.066406 -13.65625 5.203125 -13.65625 C 4.222656 -13.65625 3.484375 -13.957031 2.984375 -14.5625 C 2.484375 -15.175781 2.234375 -15.914062 2.234375 -16.78125 C 2.234375 -17.570312 2.425781 -18.222656 2.8125 -18.734375 C 3.207031 -19.242188 3.757812 -19.734375 4.46875 -20.203125 C 5.226562 -20.628906 6.140625 -20.960938 7.203125 -21.203125 C 8.273438 -21.453125 9.4375 -21.578125 10.6875 -21.578125 C 11.9375 -21.578125 13.0625 -21.445312 14.0625 -21.1875 C 15.0625 -20.9375 15.898438 -20.472656 16.578125 -19.796875 C 17.203125 -19.171875 17.609375 -18.40625 17.796875 -17.5 C 17.984375 -16.59375 18.078125 -15.445312 18.078125 -14.0625 L 18.078125 -3 C 18.078125 -2.320312 18.144531 -1.851562 18.28125 -1.59375 C 18.414062 -1.34375 18.648438 -1.21875 18.984375 -1.21875 C 19.222656 -1.21875 19.457031 -1.285156 19.6875 -1.421875 C 19.914062 -1.554688 20.164062 -1.71875 20.4375 -1.90625 L 20.84375 -1.21875 C 20.28125 -0.726562 19.625 -0.351562 18.875 -0.09375 C 18.132812 0.15625 17.300781 0.28125 16.375 0.28125 C 15.375 0.28125 14.578125 0.140625 13.984375 -0.140625 C 13.390625 -0.421875 12.960938 -0.804688 12.703125 -1.296875 C 12.441406 -1.785156 12.3125 -2.351562 12.3125 -3 C 11.664062 -1.976562 10.878906 -1.175781 9.953125 -0.59375 C 9.035156 -0.0078125 7.910156 0.28125 6.578125 0.28125 Z M 9.46875 -2.3125 C 10.007812 -2.3125 10.503906 -2.441406 10.953125 -2.703125 C 11.398438 -2.960938 11.828125 -3.390625 12.234375 -3.984375 L 12.234375 -12.3125 C 11.984375 -11.90625 11.640625 -11.539062 11.203125 -11.21875 C 10.773438 -10.894531 10.316406 -10.5625 9.828125 -10.21875 C 9.347656 -9.882812 8.882812 -9.515625 8.4375 -9.109375 C 7.988281 -8.703125 7.628906 -8.195312 7.359375 -7.59375 C 7.085938 -7 6.953125 -6.285156 6.953125 -5.453125 C 6.953125 -4.390625 7.179688 -3.597656 7.640625 -3.078125 C 8.097656 -2.566406 8.707031 -2.3125 9.46875 -2.3125 Z M 9.46875 -2.3125 "/></g></g></g><g fill="#000000" fill-opacity="1"><g transform="translate(244.888164, 55.017329)"><g><path d="M 11.703125 -31.78125 C 12.648438 -31.78125 13.472656 -31.65625 14.171875 -31.40625 C 14.878906 -31.164062 15.503906 -30.84375 16.046875 -30.4375 C 16.429688 -30.144531 16.757812 -29.734375 17.03125 -29.203125 C 17.300781 -28.671875 17.4375 -28.066406 17.4375 -27.390625 C 17.4375 -26.660156 17.171875 -26.007812 16.640625 -25.4375 C 16.109375 -24.875 15.410156 -24.59375 14.546875 -24.59375 C 13.648438 -24.59375 12.910156 -24.847656 12.328125 -25.359375 C 11.742188 -25.867188 11.453125 -26.570312 11.453125 -27.46875 C 11.453125 -28.175781 11.65625 -28.800781 12.0625 -29.34375 C 12.476562 -29.882812 13.078125 -30.265625 13.859375 -30.484375 C 13.773438 -30.640625 13.609375 -30.769531 13.359375 -30.875 C 13.117188 -30.988281 12.796875 -31.046875 12.390625 -31.046875 C 11.847656 -31.046875 11.398438 -30.953125 11.046875 -30.765625 C 10.703125 -30.578125 10.421875 -30.320312 10.203125 -30 C 9.898438 -29.59375 9.691406 -29 9.578125 -28.21875 C 9.472656 -27.445312 9.421875 -26.265625 9.421875 -24.671875 L 9.421875 -20.96875 L 13.78125 -20.96875 L 13.78125 -20.15625 L 9.421875 -20.15625 L 9.421875 -4.1875 C 9.421875 -2.851562 9.757812 -1.960938 10.4375 -1.515625 C 11.113281 -1.078125 12.050781 -0.859375 13.25 -0.859375 L 13.25 0 C 12.539062 -0.03125 11.550781 -0.0625 10.28125 -0.09375 C 9.007812 -0.132812 7.671875 -0.15625 6.265625 -0.15625 C 5.234375 -0.15625 4.222656 -0.132812 3.234375 -0.09375 C 2.242188 -0.0625 1.488281 -0.03125 0.96875 0 L 0.96875 -0.859375 C 1.914062 -0.859375 2.585938 -1.0625 2.984375 -1.46875 C 3.378906 -1.875 3.578125 -2.644531 3.578125 -3.78125 L 3.578125 -20.15625 L 0.8125 -20.15625 L 0.8125 -20.96875 L 3.578125 -20.96875 C 3.578125 -22.570312 3.65625 -23.90625 3.8125 -24.96875 C 3.976562 -26.039062 4.25 -26.957031 4.625 -27.71875 C 5.007812 -28.476562 5.515625 -29.15625 6.140625 -29.75 C 6.734375 -30.320312 7.523438 -30.800781 8.515625 -31.1875 C 9.503906 -31.582031 10.566406 -31.78125 11.703125 -31.78125 Z M 11.703125 -31.78125 "/></g></g></g><g fill="#000000" fill-opacity="1"><g transform="translate(259.192543, 55.017329)"><g><path d="M 9.21875 -27.671875 L 9.21875 -21.015625 L 14.015625 -21.015625 L 14.015625 -20.203125 L 9.21875 -20.203125 L 9.21875 -3.78125 C 9.21875 -2.96875 9.367188 -2.390625 9.671875 -2.046875 C 9.972656 -1.710938 10.421875 -1.546875 11.015625 -1.546875 C 11.503906 -1.546875 11.988281 -1.726562 12.46875 -2.09375 C 12.957031 -2.457031 13.394531 -3.085938 13.78125 -3.984375 L 14.46875 -3.609375 C 14.03125 -2.390625 13.367188 -1.390625 12.484375 -0.609375 C 11.609375 0.171875 10.414062 0.5625 8.90625 0.5625 C 8.007812 0.5625 7.222656 0.445312 6.546875 0.21875 C 5.867188 -0.0078125 5.300781 -0.351562 4.84375 -0.8125 C 4.238281 -1.40625 3.84375 -2.140625 3.65625 -3.015625 C 3.46875 -3.898438 3.375 -5.050781 3.375 -6.46875 L 3.375 -20.203125 L -0.046875 -20.203125 L -0.046875 -21.015625 L 3.375 -21.015625 L 3.375 -26.375 C 4.507812 -26.375 5.554688 -26.472656 6.515625 -26.671875 C 7.484375 -26.878906 8.382812 -27.210938 9.21875 -27.671875 Z M 9.21875 -27.671875 "/></g></g></g><g fill="#000000" fill-opacity="1"><g transform="translate(273.222309, 55.017329)"><g/></g></g><g fill="#000000" fill-opacity="1"><g transform="translate(92.936382, 97.696276)"><g><path d="M 31.59375 -16.21875 C 31.59375 -12.914062 30.945312 -10.035156 29.65625 -7.578125 C 28.363281 -5.128906 26.535156 -3.253906 24.171875 -1.953125 C 21.804688 -0.648438 19.09375 0 16.03125 0 L 3.109375 0 L 3.109375 -31.953125 L 14.671875 -31.953125 C 20.054688 -31.953125 24.222656 -30.59375 27.171875 -27.875 C 30.117188 -25.164062 31.59375 -21.28125 31.59375 -16.21875 Z M 24.859375 -16.21875 C 24.859375 -19.644531 23.960938 -22.257812 22.171875 -24.0625 C 20.390625 -25.875 17.847656 -26.78125 14.546875 -26.78125 L 9.796875 -26.78125 L 9.796875 -5.171875 L 15.46875 -5.171875 C 18.34375 -5.171875 20.625 -6.160156 22.3125 -8.140625 C 24.007812 -10.117188 24.859375 -12.8125 24.859375 -16.21875 Z M 24.859375 -16.21875 "/></g></g></g><g fill="#000000" fill-opacity="1"><g transform="translate(130.614516, 97.696276)"><g><path d="M 13.296875 0.453125 C 9.597656 0.453125 6.757812 -0.632812 4.78125 -2.8125 C 2.800781 -5 1.8125 -8.191406 1.8125 -12.390625 C 1.8125 -16.441406 2.816406 -19.554688 4.828125 -21.734375 C 6.835938 -23.910156 9.6875 -25 13.375 -25 C 16.90625 -25 19.597656 -23.828125 21.453125 -21.484375 C 23.316406 -19.148438 24.25 -15.734375 24.25 -11.234375 L 24.25 -11.046875 L 8.5 -11.046875 C 8.5 -8.660156 8.941406 -6.859375 9.828125 -5.640625 C 10.710938 -4.421875 11.972656 -3.8125 13.609375 -3.8125 C 15.859375 -3.8125 17.28125 -4.785156 17.875 -6.734375 L 23.890625 -6.21875 C 22.148438 -1.769531 18.617188 0.453125 13.296875 0.453125 Z M 13.296875 -20.984375 C 11.796875 -20.984375 10.640625 -20.457031 9.828125 -19.40625 C 9.023438 -18.363281 8.597656 -16.90625 8.546875 -15.03125 L 18.078125 -15.03125 C 17.953125 -17.019531 17.472656 -18.507812 16.640625 -19.5 C 15.816406 -20.488281 14.703125 -20.984375 13.296875 -20.984375 Z M 13.296875 -20.984375 "/></g></g></g><g fill="#000000" fill-opacity="1"><g transform="translate(160.581433, 97.696276)"><g><path d="M 23.9375 -7.171875 C 23.9375 -4.796875 22.960938 -2.929688 21.015625 -1.578125 C 19.066406 -0.222656 16.378906 0.453125 12.953125 0.453125 C 9.578125 0.453125 6.992188 -0.078125 5.203125 -1.140625 C 3.410156 -2.210938 2.222656 -3.875 1.640625 -6.125 L 7.234375 -6.96875 C 7.554688 -5.800781 8.101562 -4.972656 8.875 -4.484375 C 9.65625 -4.003906 11.015625 -3.765625 12.953125 -3.765625 C 14.734375 -3.765625 16.03125 -3.988281 16.84375 -4.4375 C 17.664062 -4.894531 18.078125 -5.609375 18.078125 -6.578125 C 18.078125 -7.359375 17.75 -7.976562 17.09375 -8.4375 C 16.4375 -8.90625 15.320312 -9.300781 13.75 -9.625 C 10.144531 -10.332031 7.710938 -10.988281 6.453125 -11.59375 C 5.203125 -12.207031 4.25 -13.003906 3.59375 -13.984375 C 2.9375 -14.960938 2.609375 -16.160156 2.609375 -17.578125 C 2.609375 -19.921875 3.507812 -21.742188 5.3125 -23.046875 C 7.125 -24.359375 9.6875 -25.015625 13 -25.015625 C 15.914062 -25.015625 18.257812 -24.445312 20.03125 -23.3125 C 21.8125 -22.175781 22.921875 -20.535156 23.359375 -18.390625 L 17.71875 -17.8125 C 17.53125 -18.800781 17.082031 -19.539062 16.375 -20.03125 C 15.664062 -20.53125 14.539062 -20.78125 13 -20.78125 C 11.488281 -20.78125 10.351562 -20.585938 9.59375 -20.203125 C 8.832031 -19.816406 8.453125 -19.171875 8.453125 -18.265625 C 8.453125 -17.546875 8.742188 -16.976562 9.328125 -16.5625 C 9.910156 -16.15625 10.890625 -15.8125 12.265625 -15.53125 C 14.191406 -15.144531 15.898438 -14.742188 17.390625 -14.328125 C 18.878906 -13.910156 20.070312 -13.410156 20.96875 -12.828125 C 21.863281 -12.253906 22.582031 -11.519531 23.125 -10.625 C 23.664062 -9.726562 23.9375 -8.578125 23.9375 -7.171875 Z M 23.9375 -7.171875 "/></g></g></g><g fill="#000000" fill-opacity="1"><g transform="translate(190.548351, 97.696276)"><g><path d="M 3.25 -28.96875 L 3.25 -33.65625 L 9.625 -33.65625 L 9.625 -28.96875 Z M 3.25 0 L 3.25 -24.546875 L 9.625 -24.546875 L 9.625 0 Z M 3.25 0 "/></g></g></g><g fill="#000000" fill-opacity="1"><g transform="translate(207.587639, 97.696276)"><g><path d="M 13.515625 9.84375 C 10.523438 9.84375 8.117188 9.269531 6.296875 8.125 C 4.472656 6.988281 3.347656 5.363281 2.921875 3.25 L 9.296875 2.5 C 9.523438 3.476562 10.015625 4.242188 10.765625 4.796875 C 11.515625 5.359375 12.492188 5.640625 13.703125 5.640625 C 15.472656 5.640625 16.765625 5.09375 17.578125 4 C 18.390625 2.914062 18.796875 1.300781 18.796875 -0.84375 L 18.796875 -2.125 L 18.84375 -4.5625 L 18.796875 -4.5625 C 17.390625 -1.550781 14.757812 -0.046875 10.90625 -0.046875 C 8.050781 -0.046875 5.835938 -1.117188 4.265625 -3.265625 C 2.691406 -5.410156 1.90625 -8.476562 1.90625 -12.46875 C 1.90625 -16.476562 2.710938 -19.570312 4.328125 -21.75 C 5.953125 -23.925781 8.304688 -25.015625 11.390625 -25.015625 C 14.953125 -25.015625 17.421875 -23.539062 18.796875 -20.59375 L 18.921875 -20.59375 C 18.921875 -21.125 18.953125 -21.84375 19.015625 -22.75 C 19.085938 -23.65625 19.160156 -24.253906 19.234375 -24.546875 L 25.265625 -24.546875 C 25.171875 -22.910156 25.125 -21.019531 25.125 -18.875 L 25.125 -0.75 C 25.125 2.738281 24.132812 5.375 22.15625 7.15625 C 20.175781 8.945312 17.296875 9.84375 13.515625 9.84375 Z M 18.84375 -12.609375 C 18.84375 -15.140625 18.394531 -17.109375 17.5 -18.515625 C 16.601562 -19.929688 15.320312 -20.640625 13.65625 -20.640625 C 10.25 -20.640625 8.546875 -17.914062 8.546875 -12.46875 C 8.546875 -7.132812 10.234375 -4.46875 13.609375 -4.46875 C 15.304688 -4.46875 16.601562 -5.171875 17.5 -6.578125 C 18.394531 -7.992188 18.84375 -10.003906 18.84375 -12.609375 Z M 18.84375 -12.609375 "/></g></g></g><g fill="#000000" fill-opacity="1"><g transform="translate(240.094721, 97.696276)"><g><path d="M 19.140625 0 L 19.140625 -13.765625 C 19.140625 -18.078125 17.679688 -20.234375 14.765625 -20.234375 C 13.222656 -20.234375 11.976562 -19.570312 11.03125 -18.25 C 10.09375 -16.925781 9.625 -15.226562 9.625 -13.15625 L 9.625 0 L 3.25 0 L 3.25 -19.046875 C 3.25 -20.367188 3.226562 -21.445312 3.1875 -22.28125 C 3.144531 -23.125 3.101562 -23.878906 3.0625 -24.546875 L 9.140625 -24.546875 C 9.179688 -24.253906 9.238281 -23.484375 9.3125 -22.234375 C 9.394531 -20.992188 9.4375 -20.140625 9.4375 -19.671875 L 9.53125 -19.671875 C 10.382812 -21.546875 11.460938 -22.90625 12.765625 -23.75 C 14.066406 -24.59375 15.617188 -25.015625 17.421875 -25.015625 C 20.023438 -25.015625 22.019531 -24.210938 23.40625 -22.609375 C 24.800781 -21.003906 25.5 -18.660156 25.5 -15.578125 L 25.5 0 Z M 19.140625 0 "/></g></g></g><g fill="#000000" fill-opacity="1"><g transform="translate(272.601803, 97.696276)"><g><path d="M 23.9375 -7.171875 C 23.9375 -4.796875 22.960938 -2.929688 21.015625 -1.578125 C 19.066406 -0.222656 16.378906 0.453125 12.953125 0.453125 C 9.578125 0.453125 6.992188 -0.078125 5.203125 -1.140625 C 3.410156 -2.210938 2.222656 -3.875 1.640625 -6.125 L 7.234375 -6.96875 C 7.554688 -5.800781 8.101562 -4.972656 8.875 -4.484375 C 9.65625 -4.003906 11.015625 -3.765625 12.953125 -3.765625 C 14.734375 -3.765625 16.03125 -3.988281 16.84375 -4.4375 C 17.664062 -4.894531 18.078125 -5.609375 18.078125 -6.578125 C 18.078125 -7.359375 17.75 -7.976562 17.09375 -8.4375 C 16.4375 -8.90625 15.320312 -9.300781 13.75 -9.625 C 10.144531 -10.332031 7.710938 -10.988281 6.453125 -11.59375 C 5.203125 -12.207031 4.25 -13.003906 3.59375 -13.984375 C 2.9375 -14.960938 2.609375 -16.160156 2.609375 -17.578125 C 2.609375 -19.921875 3.507812 -21.742188 5.3125 -23.046875 C 7.125 -24.359375 9.6875 -25.015625 13 -25.015625 C 15.914062 -25.015625 18.257812 -24.445312 20.03125 -23.3125 C 21.8125 -22.175781 22.921875 -20.535156 23.359375 -18.390625 L 17.71875 -17.8125 C 17.53125 -18.800781 17.082031 -19.539062 16.375 -20.03125 C 15.664062 -20.53125 14.539062 -20.78125 13 -20.78125 C 11.488281 -20.78125 10.351562 -20.585938 9.59375 -20.203125 C 8.832031 -19.816406 8.453125 -19.171875 8.453125 -18.265625 C 8.453125 -17.546875 8.742188 -16.976562 9.328125 -16.5625 C 9.910156 -16.15625 10.890625 -15.8125 12.265625 -15.53125 C 14.191406 -15.144531 15.898438 -14.742188 17.390625 -14.328125 C 18.878906 -13.910156 20.070312 -13.410156 20.96875 -12.828125 C 21.863281 -12.253906 22.582031 -11.519531 23.125 -10.625 C 23.664062 -9.726562 23.9375 -8.578125 23.9375 -7.171875 Z M 23.9375 -7.171875 "/></g></g></g></g></g></svg>